<?xml version="1.0" encoding="UTF-8" standalone="no"?>
<svg
   xmlns:dc="http://purl.org/dc/elements/1.1/"
   xmlns:cc="http://creativecommons.org/ns#"
   xmlns:rdf="http://www.w3.org/1999/02/22-rdf-syntax-ns#"
   xmlns:svg="http://www.w3.org/2000/svg"
   xmlns="http://www.w3.org/2000/svg"
   xmlns:sodipodi="http://sodipodi.sourceforge.net/DTD/sodipodi-0.dtd"
   xmlns:inkscape="http://www.inkscape.org/namespaces/inkscape"
   width="170px"
   height="170px"
   viewBox="0 0 170 170"
   version="1.1"
   id="svg3893"
   sodipodi:docname="speed.svg"
   inkscape:version="0.92.2 5c3e80d, 2017-08-06">
  <metadata
     id="metadata3897">
    <rdf:RDF>
      <cc:Work
         rdf:about="">
        <dc:format>image/svg+xml</dc:format>
        <dc:type
           rdf:resource="http://purl.org/dc/dcmitype/StillImage" />
        <dc:title>speed_icon</dc:title>
      </cc:Work>
    </rdf:RDF>
  </metadata>
  <sodipodi:namedview
     pagecolor="#ffffff"
     bordercolor="#666666"
     borderopacity="1"
     objecttolerance="10"
     gridtolerance="10"
     guidetolerance="10"
     inkscape:pageopacity="0"
     inkscape:pageshadow="2"
     inkscape:window-width="1680"
     inkscape:window-height="957"
     id="namedview3895"
     showgrid="false"
     inkscape:zoom="4.3764706"
     inkscape:cx="59.180108"
     inkscape:cy="85"
     inkscape:window-x="0"
     inkscape:window-y="1"
     inkscape:window-maximized="1"
     inkscape:current-layer="svg3893" />
  <!-- Generator: Sketch 49.3 (51167) - http://www.bohemiancoding.com/sketch -->
  <title
     id="title3818">speed_icon</title>
  <desc
     id="desc3820">Created with Sketch.</desc>
  <defs
     id="defs3822" />
  <g
     id="speed_icon"
     transform="translate(-0.68548387,-1.827957)"
     style="fill:none;fill-rule:evenodd;stroke:none;stroke-width:1">
    <g
       transform="translate(4,7)"
       id="g3890">
      <g
         id="Vector"
         transform="translate(0,17)">
        <path
           d="m 122.9,77.7004 c 10.6,0 19.1,-8.6 19.1,-19.1 0,-10.5 -8.6,-19.1 -19.1,-19.1 -2,0 -3.9,0.3 -5.7,0.9 0,-0.4 0,-0.9 0,-1.3 0,-21.4 -17.3,-38.70000038 -38.7,-38.70000038 -16.2,0 -30.1,10.00000038 -35.8,24.20000038 -4.2,-2.4 -9,-3.8 -14.2,-3.8 -15.7,-0.1 -28.5,12.7 -28.5,28.4 0,15.7 12.8,28.5 28.5,28.5 z"
           id="Shape"
           inkscape:connector-curvature="0"
           style="fill:#ffffff;fill-rule:nonzero" />
        <path
           d="m 122.9,77.7004 c 10.6,0 19.1,-8.6 19.1,-19.1 0,-10.5 -8.6,-19.1 -19.1,-19.1 -2,0 -3.9,0.3 -5.7,0.9 0,-0.4 0,-0.9 0,-1.3 0,-21.4 -17.3,-38.70000038 -38.7,-38.70000038 -16.2,0 -30.1,10.00000038 -35.8,24.20000038 -4.2,-2.4 -9,-3.8 -14.2,-3.8 -15.7,-0.1 -28.5,12.7 -28.5,28.4 0,15.7 12.8,28.5 28.5,28.5 z"
           id="path3825"
           inkscape:connector-curvature="0"
           style="stroke:#0072ff;stroke-width:2" />
      </g>
      <g
         id="Vector_2"
         transform="translate(71,131)">
        <path
           d="m 16.6,10.2 c 0,7.7 -8.2,13.9 -8.2,13.9 0,0 -8.20000305,-6.2 -8.20000305,-13.9 C 0.19999695,2.5 3.9,0.8999939 8.4,0.8999939 13,0.8999939 16.6,2.5 16.6,10.2 Z"
           id="path3828"
           inkscape:connector-curvature="0"
           style="fill:#ffffff;fill-rule:nonzero" />
        <path
           d="m 16.6,10.2 c 0,7.7 -8.2,13.9 -8.2,13.9 0,0 -8.20000305,-6.2 -8.20000305,-13.9 C 0.19999695,2.5 3.9,0.8999939 8.4,0.8999939 13,0.8999939 16.6,2.5 16.6,10.2 Z"
           id="path3830"
           inkscape:connector-curvature="0"
           style="stroke:#0072ff;stroke-width:2" />
      </g>
      <g
         id="Vector_3"
         transform="translate(51,129)">
        <path
           d="M 11.3,6.3 C 11.3,11.1 5.8,15 5.8,15 5.8,15 0.29999924,11.1 0.29999924,6.3 0.29999924,1.5 2.8,0.5 5.8,0.5 c 3,0 5.5,1 5.5,5.8 z"
           id="path3833"
           inkscape:connector-curvature="0"
           style="fill:#ffffff;fill-rule:nonzero" />
        <path
           d="M 11.3,6.3 C 11.3,11.1 5.8,15 5.8,15 5.8,15 0.29999924,11.1 0.29999924,6.3 0.29999924,1.5 2.8,0.5 5.8,0.5 c 3,0 5.5,1 5.5,5.8 z"
           id="path3835"
           inkscape:connector-curvature="0"
           style="stroke:#0072ff;stroke-width:2" />
      </g>
      <g
         id="Vector_4"
         transform="translate(97,129)">
        <path
           d="M 11.3,6.3 C 11.3,11.1 5.8,15 5.8,15 5.8,15 0.30000305,11.1 0.30000305,6.3 0.30000305,1.5 2.8,0.5 5.8,0.5 c 3,0 5.5,1 5.5,5.8 z"
           id="path3838"
           inkscape:connector-curvature="0"
           style="fill:#ffffff;fill-rule:nonzero" />
        <path
           d="M 11.3,6.3 C 11.3,11.1 5.8,15 5.8,15 5.8,15 0.30000305,11.1 0.30000305,6.3 0.30000305,1.5 2.8,0.5 5.8,0.5 c 3,0 5.5,1 5.5,5.8 z"
           id="path3840"
           inkscape:connector-curvature="0"
           style="stroke:#0072ff;stroke-width:2" />
      </g>
      <g
         id="Vector_5"
         transform="translate(69,115)">
        <polygon
           id="polygon3843"
           points="20.1,12.4 0.69999695,12.4 10.5,0 "
           style="fill:#ffffff;fill-rule:nonzero" />
        <polygon
           id="polygon3845"
           points="20.1,12.4 0.69999695,12.4 10.5,0 "
           style="stroke:#92a4ba;stroke-width:2;stroke-linejoin:round" />
      </g>
      <g
         id="Vector_6"
         transform="translate(50,115)">
        <polygon
           id="polygon3848"
           points="13.2,9.999 0.29999924,9.999 6.9,0.69899695 "
           style="fill:#ffffff;fill-rule:nonzero" />
        <polygon
           id="polygon3850"
           points="13.2,9.999 0.29999924,9.999 6.9,0.69899695 "
           style="stroke:#92a4ba;stroke-width:2;stroke-linejoin:round" />
      </g>
      <g
         id="Vector_7"
         transform="translate(96,115)">
        <polygon
           id="polygon3853"
           points="13.4,9.999 0.40000153,9.999 7,0.69899695 "
           style="fill:#ffffff;fill-rule:nonzero" />
        <polygon
           id="polygon3855"
           points="13.4,9.999 0.40000153,9.999 7,0.69899695 "
           style="stroke:#92a4ba;stroke-width:2;stroke-linejoin:round" />
      </g>
      <g
         id="Vector_8"
         transform="translate(65)">
        <path
           d="M 14.7,0 C 10.6,0 0.80000305,20.5 0.80000305,33.9 v 85.8 H 28.7 V 33.9 C 28.6,20 18.6,0 14.7,0 Z"
           id="path3858"
           inkscape:connector-curvature="0"
           style="fill:#ffffff;fill-rule:nonzero" />
        <path
           d="M 14.7,0 C 10.6,0 0.80000305,20.5 0.80000305,33.9 v 85.8 H 28.7 V 33.9 C 28.6,20 18.6,0 14.7,0 Z"
           id="path3860"
           inkscape:connector-curvature="0"
           style="stroke:#92a4ba;stroke-width:2" />
      </g>
      <g
         id="Vector_9"
         transform="translate(93,40)">
        <path
           d="M 9.8,0.80079924 C 7.1,0.80079924 0.59999847,14.3008 0.59999847,23.2008 v 56.5 H 19 v -56.5 C 19,14.0008 12.4,0.80079924 9.8,0.80079924 Z"
           id="path3863"
           inkscape:connector-curvature="0"
           style="fill:#ffffff;fill-rule:nonzero" />
        <path
           d="M 9.8,0.80079924 C 7.1,0.80079924 0.59999847,14.3008 0.59999847,23.2008 v 56.5 H 19 v -56.5 C 19,14.0008 12.4,0.80079924 9.8,0.80079924 Z"
           id="path3865"
           inkscape:connector-curvature="0"
           style="stroke:#92a4ba;stroke-width:2" />
      </g>
      <g
         id="Vector_10"
         transform="translate(47,40)">
        <path
           d="M 9.6,0.80079924 C 6.9,0.80079924 0.40000153,14.3008 0.40000153,23.2008 v 56.5 H 18.8 v -56.5 C 18.7,14.0008 12.2,0.80079924 9.6,0.80079924 Z"
           id="path3868"
           inkscape:connector-curvature="0"
           style="fill:#ffffff;fill-rule:nonzero" />
        <path
           d="M 9.6,0.80079924 C 6.9,0.80079924 0.40000153,14.3008 0.40000153,23.2008 v 56.5 H 18.8 v -56.5 C 18.7,14.0008 12.2,0.80079924 9.6,0.80079924 Z"
           id="path3870"
           inkscape:connector-curvature="0"
           style="stroke:#92a4ba;stroke-width:2" />
      </g>
      <g
         id="Vector_11"
         transform="translate(79,86)">
        <path
           d="m 11.6,44.9992 c -6.1,0 -11.1,-5 -11.1,-11.1 0,-6.1 5,-11.1 11.1,-11.1 1.2,0 2.3,0.2 3.3,0.5 0,-0.2 0,-0.5 0,-0.7 0,-12.4 10,-22.40000305 22.4,-22.40000305 9.4,0 17.5,5.80000305 20.8,14.00000305 2.4,-1.4 5.2,-2.2 8.2,-2.2 9.1,0 16.5,7.4 16.5,16.5 0,9.1 -7.4,16.5 -16.5,16.5 z"
           id="path3873"
           inkscape:connector-curvature="0"
           style="fill:#ffffff;fill-rule:nonzero" />
        <path
           d="m 11.6,44.9992 c -6.1,0 -11.1,-5 -11.1,-11.1 0,-6.1 5,-11.1 11.1,-11.1 1.2,0 2.3,0.2 3.3,0.5 0,-0.2 0,-0.5 0,-0.7 0,-12.4 10,-22.40000305 22.4,-22.40000305 9.4,0 17.5,5.80000305 20.8,14.00000305 2.4,-1.4 5.2,-2.2 8.2,-2.2 9.1,0 16.5,7.4 16.5,16.5 0,9.1 -7.4,16.5 -16.5,16.5 z"
           id="path3875"
           inkscape:connector-curvature="0"
           style="stroke:#0072ff;stroke-width:2" />
      </g>
      <g
         id="Vector_12"
         transform="translate(65,43)"
         style="stroke:#92a4ba">
        <path
           d="m 0.59999847,7.4008 v -0.3 C 0.59999847,3.6008 3.4,0.80079924 6.9,0.80079924 h 14.7 c 3.5,0 6.3,2.80000076 6.3,6.30000076"
           id="path3878"
           inkscape:connector-curvature="0" />
      </g>
      <g
         id="Vector_13"
         transform="translate(47,69)"
         style="stroke:#92a4ba">
        <path
           d="m 0.29999924,5.0992 v -0.2 C 0.29999924,2.5992 2.2,0.69919695 4.5,0.69919695 h 9.7 c 2.3,0 4.2,1.90000305 4.2,4.20000305"
           id="path3881"
           inkscape:connector-curvature="0" />
      </g>
      <g
         id="Vector_14"
         transform="translate(93,69)"
         style="stroke:#92a4ba">
        <path
           d="m 0.59999847,5.0992 v -0.2 C 0.59999847,2.5992 2.5,0.69919695 4.8,0.69919695 h 9.7 c 2.3,0 4.2,1.90000305 4.2,4.20000305"
           id="path3884"
           inkscape:connector-curvature="0" />
      </g>
      <g
         id="Vector_15"
         transform="translate(37,99)"
         style="stroke:#92a4ba;stroke-width:2" />
    </g>
  </g>
</svg>
